HIERARCHY
ROOT Hips
{
    OFFSET 0.000000 0.000000 0.000000
    CHANNELS 6 Xposition Yposition Zposition Zrotation Xrotation Yrotation
    JOINT Spine
    {
        OFFSET -0.000000 7.236184 0.000000
        CHANNELS 3 Zrotation Xrotation Yrotation
        JOINT Spine1
        {
            OFFSET -0.000000 20.420147 0.000000
            CHANNELS 3 Zrotation Xrotation Yrotation
            JOINT Neck
            {
                OFFSET -0.000000 20.336288 1.848754
                CHANNELS 3 Zrotation Xrotation Yrotation
                JOINT Head
                {
                    OFFSET -0.000000 12.354461 -1.764923
                    CHANNELS 3 Zrotation Xrotation Yrotation
                    End Site
                    {
                        OFFSET -0.000000 22.061537 0.000000
                    }
                }
            }
            JOINT LeftShoulder
            {
                OFFSET 3.573296 18.396038 -0.314103
                CHANNELS 3 Zrotation Xrotation Yrotation
                JOINT LeftArm
                {
                    OFFSET 10.880760 0.000000 0.000000
                    CHANNELS 3 Zrotation Xrotation Yrotation
                    JOINT LeftForeArm
                    {
                        OFFSET 27.185530 0.000000 0.000000
                        CHANNELS 3 Zrotation Xrotation Yrotation
                        JOINT LeftHand
                        {
                            OFFSET 27.825975 0.000000 0.000000
                            CHANNELS 3 Zrotation Xrotation Yrotation
                            End Site
                            {
                                OFFSET 13.236923 0.000000 0.000000
                            }
                        }
                    }
                }
            }
            JOINT RightShoulder
            {
                OFFSET -3.474926 18.396038 -0.314103
                CHANNELS 3 Zrotation Xrotation Yrotation
                JOINT RightArm
                {
                    OFFSET -10.880760 0.000000 0.000000
                    CHANNELS 3 Zrotation Xrotation Yrotation
                    JOINT RightForeArm
                    {
                        OFFSET -27.185530 0.000000 0.000000
                        CHANNELS 3 Zrotation Xrotation Yrotation
                        JOINT RightHand
                        {
                            OFFSET -27.825975 0.000000 0.000000
                            CHANNELS 3 Zrotation Xrotation Yrotation
                            End Site
                            {
                                OFFSET -13.236923 0.000000 0.000000
                            }
                        }
                    }
                }
            }
        }
    }
    JOINT LeftUpLeg
    {
        OFFSET 8.824615 0.000000 0.000000
        CHANNELS 3 Zrotation Xrotation Yrotation
        JOINT LeftLeg
        {
            OFFSET -0.000000 -35.111282 0.000000
            CHANNELS 3 Zrotation Xrotation Yrotation
            JOINT LeftFoot
            {
                OFFSET -0.000000 -42.324711 0.000000
                CHANNELS 3 Zrotation Xrotation Yrotation
                JOINT LeftToeBase
                {
                    OFFSET -0.000000 -5.735999 13.236923
                    CHANNELS 3 Zrotation Xrotation Yrotation
                    End Site
                    {
                        OFFSET -0.000000 0.000000 3.529846
                    }
                }
            }
        }
    }
    JOINT RightUpLeg
    {
        OFFSET -8.824615 0.000000 0.000000
        CHANNELS 3 Zrotation Xrotation Yrotation
        JOINT RightLeg
        {
            OFFSET -0.000000 -35.111282 0.000000
            CHANNELS 3 Zrotation Xrotation Yrotation
            JOINT RightFoot
            {
                OFFSET -0.000000 -42.324711 0.000000
                CHANNELS 3 Zrotation Xrotation Yrotation
                JOINT RightToeBase
                {
                    OFFSET -0.000000 -5.735999 13.236923
                    CHANNELS 3 Zrotation Xrotation Yrotation
                    End Site
                    {
                        OFFSET -0.000000 0.000000 3.529846
                    }
                }
            }
        }
    }
}
MOTION
Frames:    9
Frame Time:    0.008333
5.498541    82.449242    112.777733    -0.572571    -15.219112    -173.615112    -2.883113    -16.017883    -0.127725    1.924382    8.884654    0.128476    2.305359    6.517989    -2.578380    4.996438    -11.312035    -1.698241    1.345194    15.597566    -3.933651    -38.749252    47.729496    -48.419479    0.121976    -2.810592    -14.975954    18.992411    -2.690242    0.624582    2.221217    17.165543    -1.692242    45.785355    43.368137    34.553307    -5.998720    -9.765761    16.803329    -17.799757    -8.428220    -2.986643    10.634215    -21.999876    3.574002    -0.050914    11.326356    2.692705    -11.115570    -0.508219    -4.888705    16.343786    -23.552011    -19.082371    -15.656627    -11.512643    -7.133875    2.282724    2.412150    -1.263479    11.207877    -2.833465    -16.396093    -0.822239    -0.089029    0.889422    
5.521236    82.450676    112.738609    -0.552178    -15.156154    -173.640915    -2.892060    -16.018097    -0.136304    1.929411    8.900970    0.120482    2.316042    6.524738    -2.559399    4.985984    -11.253551    -1.684255    1.353226    15.571984    -3.917724    -38.656956    47.678154    -48.502792    0.191195    -2.799489    -14.973187    18.846142    -2.668537    0.638673    2.246790    17.203634    -1.696495    45.820229    43.395103    34.586555    -5.969462    -9.776789    16.826874    -17.808805    -8.448855    -2.943119    10.676012    -21.930693    3.820702    0.004636    11.366907    2.417274    -11.632083    -0.815412    -5.977155    14.900469    -19.812164    -17.221704    -15.592266    -11.441982    -7.089872    2.270374    2.346263    -2.013946    11.217978    -2.629872    -15.672894    -0.831640    -0.065972    0.899562    
5.543822    82.452103    112.699684    -0.532617    -15.094193    -173.667999    -2.900802    -16.018623    -0.144686    1.933222    8.917205    0.113049    2.327014    6.531120    -2.540499    4.975504    -11.196259    -1.670366    1.361536    15.547520    -3.900909    -38.572994    47.622158    -48.580021    0.261011    -2.789135    -14.971301    18.699146    -2.647849    0.650911    2.272519    17.241711    -1.700521    45.856033    43.419369    34.618191    -5.942223    -9.788708    16.852978    -17.817747    -8.469899    -2.900018    10.717154    -21.853373    4.015555    0.049315    11.391191    2.205691    -12.106055    -1.103500    -7.093546    13.253936    -16.257185    -15.184591    -15.529210    -11.373187    -7.047982    2.257618    2.283648    -2.737191    11.224749    -2.433555    -14.973161    -0.841036    -0.043234    0.909698    
5.565920    82.453461    112.661575    -0.515085    -15.035103    -173.697327    -2.909250    -16.019745    -0.152103    1.934645    8.932618    0.106355    2.338221    6.536105    -2.522063    4.965383    -11.140665    -1.656819    1.369875    15.524874    -3.882870    -38.505234    47.558155    -48.644966    0.331062    -2.780101    -14.970840    18.552717    -2.629028    0.659848    2.298717    17.279192    -1.704185    45.893101    43.438679    34.646339    -5.919038    -9.802613    16.883757    -17.827028    -8.491854    -2.858499    10.756170    -21.764503    4.126897    0.076342    11.389753    2.097826    -12.518459    -1.352669    -8.172913    11.525775    -13.102065    -13.109729    -15.469685    -11.309098    -7.010354    2.245461    2.228825    -3.392259    11.227294    -2.255641    -14.333997    -0.850140    -0.021873    0.919517    
5.587440    82.454666    112.624382    -0.500483    -14.979836    -173.729919    -2.917417    -16.022131    -0.158688    1.932328    8.947119    0.100884    2.349807    6.539712    -2.504050    4.955870    -11.087550    -1.643475    1.378866    15.504488    -3.863175    -38.458603    47.482567    -48.694389    0.401859    -2.772897    -14.972293    18.407364    -2.612538    0.665235    2.325539    17.316105    -1.706888    45.932343    43.451164    34.670174    -5.901017    -9.819547    16.921041    -17.837811    -8.515583    -2.817888    10.792230    -21.663635    4.151590    0.085074    11.360858    2.098395    -12.868221    -1.557229    -9.178095    9.814467    -10.415292    -11.098968    -15.415115    -11.251465    -6.978702    2.234726    2.184067    -3.964160    11.225900    -2.100106    -13.767632    -0.858767    -0.001927    0.928823    
5.608266    82.455666    112.588326    -0.489406    -14.929359    -173.766144    -2.925221    -16.025740    -0.164386    1.925311    8.959955    0.096763    2.362021    6.541965    -2.486470    4.946932    -11.037997    -1.630434    1.388584    15.486825    -3.841366    -38.435982    47.393051    -48.726585    0.473020    -2.768021    -14.975411    18.266296    -2.598864    0.666919    2.353093    17.351936    -1.708457    45.973804    43.455929    34.689293    -5.889008    -9.840790    16.965839    -17.851137    -8.542300    -2.777433    10.824823    -21.553923    4.106510    0.078905    11.308645    2.188147    -13.158395    -1.717940    -10.082436    8.204419    -8.204028    -9.236276    -15.366648    -11.201690    -6.954399    2.226118    2.150336    -4.447447    11.221135    -1.968317    -13.278027    -0.867128    0.016974    0.937842    
5.628347    82.456421    112.553574    -0.481879    -14.884105    -173.805862    -2.932149    -16.030787    -0.169081    1.912638    8.971054    0.093867    2.375446    6.542890    -2.469421    4.938412    -10.992509    -1.617762    1.399962    15.471979    -3.817554    -38.439850    47.288261    -48.740616    0.543290    -2.765489    -14.979118    18.136360    -2.588031    0.665650    2.381473    17.386503    -1.708391    46.015545    43.452457    34.705391    -5.882644    -9.867764    17.017679    -17.868908    -8.573665    -2.735792    10.854152    -21.440073    4.018790    0.063504    11.240931    2.332771    -13.396022    -1.840459    -10.868526    6.755768    -6.432602    -7.578858    -15.324557    -11.160091    -6.937897    2.219983    2.127296    -4.843987    11.213739    -1.859713    -12.863134    -0.875087    0.034490    0.946428    
5.647876    82.456932    112.519943    -0.477456    -14.843662    -173.848572    -2.937607    -16.036810    -0.173238    1.893426    8.980021    0.092147    2.390505    6.542948    -2.452801    4.930623    -10.951476    -1.605378    1.413822    15.460180    -3.791656    -38.470303    47.166740    -48.737190    0.611430    -2.765279    -14.982430    18.025549    -2.579979    0.662708    2.410813    17.419426    -1.706243    46.055801    43.440746    34.720676    -5.880927    -9.901670    17.075281    -17.893101    -8.611382    -2.690848    10.880997    -21.325144    3.912773    0.043615    11.164025    2.503157    -13.589014    -1.932025    -11.537407    5.490700    -5.031486    -6.143064    -15.288148    -11.125923    -6.929157    2.216238    2.113878    -5.163001    11.204452    -1.771854    -12.514364    -0.882889    0.051069    0.954844    
5.666852    82.457214    112.487648    -0.475532    -14.807926    -173.893173    -2.940961    -16.043203    -0.176943    1.867490    8.986336    0.091119    2.407722    6.542221    -2.436671    4.923054    -10.915101    -1.593463    1.430684    15.451019    -3.763810    -38.525703    47.030228    -48.718109    0.675681    -2.767517    -14.984097    17.941694    -2.574727    0.659830    2.440881    17.450722    -1.701821    46.090687    43.420475    34.739017    -5.881463    -9.942338    17.136051    -17.925346    -8.655825    -2.641926    10.905951    -21.212624    3.805847    0.022649    11.083663    2.676413    -13.743470    -1.998887    -12.089746    4.423001    -3.943110    -4.938344    -15.256772    -11.098449    -6.927636    2.214792    2.108481    -5.412382    11.193772    -1.702450    -12.225469    -0.890362    0.066412    0.962906    
